<?xml version="1.0" encoding="UTF-8" standalone="no"?>
<!-- Created with Inkscape (http://www.inkscape.org/) -->

<svg
   version="1.1"
   id="svg1"
   width="411.32504"
   height="400.5166"
   viewBox="0 0 411.32504 400.5166"
   xmlns="http://www.w3.org/2000/svg"
   xmlns:svg="http://www.w3.org/2000/svg">
  <defs
     id="defs1" />
  <g
     id="g1"
     transform="translate(-421.8027,-3171.0632)">
    <path
       d="m 590.48517,3570.3318 c -75.2953,-7.2301 -135.4698,-39.2804 -158.2789,-84.303 -27.845,-54.9631 2.8907,-125.9086 60.2585,-139.0913 3.85,-0.8847 8.9189,-2.0281 11.2643,-2.5409 41.1365,-8.9939 88.2357,23.645 88.2357,61.1459 0,6.9215 -1.5022,7.302 -7.8206,1.9812 -32.3392,-27.2331 -60.5325,17.6435 -30.0184,47.7816 14.6403,14.4599 45.8724,22.9609 63.8478,17.3787 1.9201,-0.5963 5.5162,-1.6485 7.9912,-2.3382 4.1013,-1.1429 23.6905,-10.1776 28.5032,-13.146 51.877,-31.9959 89.6354,-38.2567 124.6333,-20.6656 7.1252,3.5813 7.737,3.7242 9.1364,2.1342 2.6218,-2.979 9.2182,-19.98 10.7492,-27.7041 2.5952,-13.094 3.2176,-16.638 3.951,-22.5 0.4474,-3.575 1.128,-7.4709 1.5126,-8.6576 1.552,-4.789 -2.1669,-6.3408 -15.2357,-6.3572 -16.082,-0.02 -20.6515,-2.8993 -18.57,-11.7007 1.5445,-6.531 4.5623,-7.768 19.2637,-7.8958 16.3424,-0.1422 16.2277,-0.064 14.1131,-9.6244 -0.5187,-2.3454 -1.4577,-6.7393 -2.0866,-9.7643 -14.1724,-68.17 -71.9425,-123.26 -139.4702,-132.9999 -16.2426,-2.3427 -15.9277,-2.6119 -16.5,14.1009 -0.5449,15.9123 -0.9373,17.0631 -6.436,18.8779 -8.7716,2.8949 -11.9051,-2.0758 -12.564,-19.9302 -0.5,-13.5487 -0.5,-13.5487 -9.5,-13.4486 -61.5962,0.6853 -129.807,58.9509 -146.503,125.1426 -1.1454,4.5409 -1.6794,4.9734 -19.491,15.7858 -9.5913,5.8223 -12.5338,4.9352 -9.5615,-2.8826 0.5805,-1.5269 1.0555,-4.7047 1.0555,-7.0618 0,-2.3571 0.3953,-5.5903 0.8785,-7.1849 8.6049,-28.3954 9.5901,-31.1829 14.8099,-41.901 21.8754,-44.9179 66.1052,-87.0523 104.3116,-99.3699 1.925,-0.6206 7.1,-2.296 11.5,-3.7232 4.4,-1.4271 10.475,-3.0041 13.5,-3.5044 3.025,-0.5003 7.75,-1.3588 10.5,-1.9078 14.8635,-2.9673 20.4212,-3.4503 39,-3.3892 18.711,0.062 30.504,1.0201 40,3.2511 2.2,0.5168 5.575,1.2595 7.5,1.6503 94.6194,19.2091 163.6044,125.1757 145.171,222.9949 -21.3011,113.0371 -119.0663,182.9462 -239.6506,171.3675 z m 38.2887,-180.7345 c -10.9256,-4.4124 -15.1503,-10.5906 -17.3378,-25.3546 -0.5358,-3.6168 -8.5159,-10.6263 -26.501,-23.278 -4.9933,-3.5125 -35.3791,-26.7101 -37.8492,-28.8954 -6.0696,-5.3697 -5.621,-12.7828 0.9982,-16.4981 5.011,-2.8126 8.429,-0.7095 57.2087,35.201 15.748,11.5933 16.6588,11.8726 28.5721,8.7634 2.42,-0.6317 6.3061,-0.8626 8.6356,-0.5133 5.1636,0.7743 7.1361,-0.1904 14.4465,-7.0663 3.0348,-2.8544 9.1178,-8.4125 13.5178,-12.3512 4.4,-3.9388 12.275,-11.1463 17.5,-16.0167 5.225,-4.8704 14.225,-13.2249 20,-18.5655 5.775,-5.3405 12.975,-12.0949 16,-15.0096 10.4142,-10.0345 20.076,-9.7181 19.9645,0.6539 -0.055,5.1591 -0.2791,5.4126 -41.0768,46.5468 -38.6122,38.9307 -38.6122,38.9307 -39.0811,46.8408 -1.1296,19.0558 -18.9163,32.0374 -34.9975,25.5428 z"
       style="fill:#0e5f9c;stroke:none"
       id="path1" />
  </g>
</svg>
