<?xml version="1.0" encoding="UTF-8" standalone="no"?>
<!-- Created with Inkscape (http://www.inkscape.org/) -->

<svg
   version="1.1"
   id="svg1"
   width="3169"
   height="644"
   viewBox="0 0 3169 644"
   sodipodi:docname="studyflow-white.svg"
   inkscape:version="1.4.2 (ebf0e94, 2025-05-08)"
   xmlns:inkscape="http://www.inkscape.org/namespaces/inkscape"
   xmlns:sodipodi="http://sodipodi.sourceforge.net/DTD/sodipodi-0.dtd"
   xmlns="http://www.w3.org/2000/svg"
   xmlns:svg="http://www.w3.org/2000/svg">
  <sodipodi:namedview
     id="namedview1"
     pagecolor="#505050"
     bordercolor="#eeeeee"
     borderopacity="1"
     inkscape:showpageshadow="0"
     inkscape:pageopacity="0"
     inkscape:pagecheckerboard="0"
     inkscape:deskcolor="#505050"
     inkscape:zoom="0.56042916"
     inkscape:cx="718.19961"
     inkscape:cy="138.28688"
     inkscape:window-width="1920"
     inkscape:window-height="1001"
     inkscape:window-x="-7"
     inkscape:window-y="-7"
     inkscape:window-maximized="1"
     inkscape:current-layer="g1" />
  <defs
     id="defs1" />
  <g
     id="g1"
     style="fill:#ffffff;fill-opacity:1;stroke:none;stroke-opacity:1">
    <path
       style="fill:#ffffff;stroke-width:2.26196;fill-opacity:1;stroke:none;stroke-opacity:1"
       d="M 139.11028,500.67737 C 91.914223,491.00138 52.284076,471.20662 32.22728,447.29062 17.192616,429.36308 13.249841,422.95707 6.7254445,405.85652 1.7499433,392.81567 0.97205105,387.92143 2.0878926,376.67856 4.127387,356.12928 3.8227516,356.25803 50.404917,356.25803 H 90.47823 l 2.975824,10.1788 c 10.271846,35.1348 26.642956,50.9404 58.389306,56.37233 7.30367,1.24968 16.92651,2.92414 21.38409,3.72098 5.18365,0.92666 15.42616,-0.32506 28.41887,-3.47307 24.81639,-6.01273 38.0693,-15.99615 48.3988,-36.45875 8.01386,-15.8754 8.49441,-26.77481 1.84853,-41.92802 -9.85007,-22.45914 -25.13467,-34.75952 -51.63298,-41.55199 C 153.51265,291.1351 131.53711,284.27997 107.63969,274.22576 77.682253,261.62194 64.472893,253.03029 47.327601,234.99743 21.627176,207.96658 8.1430262,166.10785 14.326093,132.55114 c 1.451216,-7.87603 2.638575,-16.97053 2.638575,-20.20999 0,-5.49012 1.68594,-9.57632 14.392648,-34.883319 C 47.938153,44.435024 80.68901,20.048936 123.64623,8.7400701 c 16.0991,-4.2382276 24.81169,-4.9589335 59.57219,-4.9278131 37.89628,0.033928 41.96805,0.4505101 58.81084,6.0169294 52.7238,17.4248246 89.06693,54.7567916 96.70264,99.3337136 1.34064,7.82654 1.7206,17.08653 0.84434,20.57774 l -1.59314,6.34766 -39.62729,-0.75097 c -39.20499,-0.74296 -39.67353,-0.81122 -43.96819,-6.40585 -2.3875,-3.11019 -4.36354,-8.41864 -4.3912,-11.79656 -0.0622,-7.59411 -11.3329,-20.873003 -22.59138,-26.616647 -22.63463,-11.547329 -54.77408,-14.412652 -76.476,-6.818055 -17.21504,6.024412 -22.85305,10.475823 -31.61087,24.957942 -13.64989,22.57172 -9.03465,52.51936 11.21434,72.76835 4.71777,4.71778 10.38704,8.57777 12.59838,8.57777 2.21134,0 6.02839,1.38434 8.48234,3.07632 2.45394,1.69197 32.96236,12.41829 67.79648,23.83627 68.25567,22.37292 76.74544,26.52476 99.33385,48.5781 21.81932,21.30247 32.80671,51.27424 32.85832,89.63208 0.0761,56.52833 -28.64694,100.84968 -82.4339,127.20047 -8.7059,4.26512 -20.4094,9.06287 -26.00774,10.66166 -5.59834,1.5988 -13.23244,3.90611 -16.96467,5.12738 -7.32338,2.39639 -77.78145,4.46825 -87.08529,2.56081 z"
       id="path1" />
    <path
       style="fill:#ffffff;stroke-width:2.26196;fill-opacity:1;stroke:none;stroke-opacity:1"
       d="m 507.80906,496.42729 c -33.7139,-6.78209 -44.20314,-11.38051 -59.05578,-25.88969 -17.57367,-17.16727 -20.67438,-28.67058 -22.57294,-83.74317 -0.8792,-25.50355 -1.7182,-70.79921 -1.86444,-100.65703 -0.18948,-38.68664 -1.08479,-55.91197 -3.11555,-59.94183 -2.61409,-5.18743 -4.40327,-5.74838 -21.6439,-6.78586 -20.8106,-1.25232 -23.92011,-3.30335 -26.59079,-17.53927 -2.28134,-12.16061 0.28732,-39.42543 4.4743,-47.49196 l 3.81576,-7.35136 h 19.03504 c 12.74436,0 19.63964,-0.93441 20.86449,-2.82744 1.0062,-1.5551 2.37504,-20.39402 3.04187,-41.86428 1.62049,-52.175815 -1.30835,-49.225087 48.68146,-49.045279 29.37979,0.105676 37.96543,0.826068 40.43707,3.392934 2.3226,2.412084 3.55593,14.425026 4.74688,46.235935 0.95468,25.49983 2.56554,43.58349 3.96114,44.46816 1.29368,0.82004 17.70988,0.94151 36.48044,0.26991 45.73247,-1.63627 44.50409,-2.58922 45.04259,34.94355 0.536,37.35933 2.92664,35.45873 -45.87072,36.46809 l -38.191,0.78997 -1.00984,15.04372 c -0.55541,8.27405 -0.69758,47.38467 -0.31594,86.9125 0.65753,68.10181 0.94662,72.36994 5.51553,81.43041 8.36724,16.5928 12.85186,18.49728 45.68225,19.39977 22.33362,0.61394 29.3904,1.56245 31.62105,4.25024 3.1514,3.79719 5.57877,46.42004 3.18648,55.95174 -1.92194,7.65762 -10.63168,11.68336 -31.58129,14.59717 -22.42032,3.11838 -46.06255,2.74721 -64.77416,-1.01693 z"
       id="path2" />
    <path
       style="fill:#ffffff;stroke-width:2.26196;fill-opacity:1;stroke:none;stroke-opacity:1"
       d="m 753.23126,501.81952 c -9.9526,-0.80609 -22.53373,-3.09071 -27.95807,-5.07694 -23.83981,-8.72945 -49.80753,-29.90403 -61.32586,-50.00632 -2.85135,-4.9763 -7.07368,-16.68192 -9.38296,-26.01249 -3.82715,-15.4635 -4.20104,-27.77505 -4.22539,-139.13339 l -0.0267,-122.16873 5.95249,-6.4195 5.9525,-6.4195 38.33905,0.78773 c 33.68813,0.69216 38.69842,1.27936 41.30141,4.84045 4.38893,6.00439 6.68232,90.18425 4.21748,154.80456 -2.04035,53.49141 -0.67075,76.24363 5.49491,91.28326 6.42636,15.67551 24.94725,25.64137 52.55515,28.27929 12.34222,1.17929 15.89876,0.24411 50.90717,-13.38587 8.01995,-3.12245 25.99025,-19.47112 25.99561,-23.64977 0.002,-1.59886 1.45254,-5.16144 3.22331,-7.91684 2.64794,-4.12031 3.35077,-25.00514 3.95843,-117.62533 0.63698,-97.09342 1.20648,-112.91104 4.13175,-114.75962 1.86612,-1.17926 21.40258,-2.1597 43.4144,-2.17875 38.81204,-0.0336 40.12784,0.11728 43.54265,4.99257 3.10901,4.43875 3.52118,24.38819 3.52118,170.42709 0,157.36404 -0.20097,165.58174 -4.13653,169.14337 -3.37687,3.05604 -9.08865,3.72542 -31.10189,3.64501 -14.83094,-0.0542 -31.3047,-0.93783 -36.60833,-1.96365 -14.06905,-2.72124 -25.41735,-15.87296 -25.41735,-29.45652 0,-3.81402 -1.04782,-6.93457 -2.3285,-6.93457 -1.28067,0 -7.50288,4.09011 -13.82714,9.08917 -37.68493,29.78822 -69.49545,39.59551 -116.16877,35.81529 z"
       id="path3" />
    <path
       style="fill:#ffffff;stroke-width:2.26196;fill-opacity:1;stroke:none;stroke-opacity:1"
       d="m 1160.3833,501.31042 c -63.5679,-13.72181 -104.4128,-60.14751 -121.9303,-138.59016 -8.7018,-38.96622 -0.4901,-97.58279 19.7597,-141.0486 10.6457,-22.85068 45.2108,-58.97365 70.1865,-73.34987 16.7529,-9.64307 42.8851,-15.41776 69.5991,-15.37999 36.5678,0.0517 59.0519,7.95439 85.6803,30.11478 10.5877,8.81114 14.5906,10.98184 16.5824,8.99217 2.7449,-2.74214 3.7869,-100.935603 1.4945,-140.843994 -1.4852,-25.8557835 -0.1503,-27.3151157 26.6511,-29.1365546 25.1558,-1.70960066 63.0879,0.8119446 66.7117,4.434673 2.1425,2.1417968 2.9162,56.7094106 3.4139,240.7544256 0.5549,205.17821 0.1909,238.60489 -2.6406,242.48247 -3.015,4.12895 -6.4214,4.55574 -41.5631,5.20754 l -38.2789,0.70996 -7.147,-8.14003 c -4.487,-5.11035 -7.1471,-10.56756 -7.1471,-14.6622 0,-13.60985 -1.77,-14.19357 -14.3466,-4.73136 -17.4417,13.12254 -43.7389,26.33937 -60.2979,30.30544 -21.2226,5.08304 -50.6428,6.3534 -66.7277,2.8813 z m 94.7087,-82.9482 c 5.676,-2.66805 14.7976,-8.79227 20.2701,-13.6094 8.2477,-7.25986 11.1498,-12.15792 16.9615,-28.62661 9.0501,-25.64555 11.6939,-41.39571 11.6939,-69.6657 0,-33.62719 -5.153,-48.36394 -24.047,-68.77126 -20.0729,-21.68056 -23.6066,-23.21945 -56.2524,-24.49721 -33.3109,-1.30379 -43.3411,1.07049 -56.7544,13.43446 -10.7571,9.91549 -24.0119,34.41812 -27.9102,51.59406 -3.118,13.73812 -3.036,71.52195 0.1226,86.40847 4.9956,23.54454 18.861,42.36125 39.3028,53.33787 17.7233,9.51684 56.7792,9.71835 76.6131,0.39532 z"
       id="path4" />
    <path
       style="fill:#ffffff;stroke-width:2.26196;fill-opacity:1;stroke:none;stroke-opacity:1"
       d="m 1486.1049,639.65973 c -13.8672,-4.86065 -14.7191,-6.87578 -14.5306,-34.37166 0.096,-14.02392 1.4294,-28.58931 3.0219,-33.01327 l 2.8499,-7.91684 28.0799,-1.30556 c 22.5022,-1.0462 29.8773,-2.25571 37.1278,-6.08893 13.7767,-7.28346 24.8617,-18.84635 29.3605,-30.62627 6.1499,-16.10336 3.5131,-26.26307 -22.4209,-86.38681 -1.6098,-3.73222 -4.991,-11.87527 -7.5136,-18.09564 -2.5226,-6.22038 -8.208,-19.96176 -12.6342,-30.53641 -7.9803,-19.06591 -22.1696,-55.4106 -45.5209,-116.59793 -15.8715,-41.58814 -26.4417,-68.78227 -38.9296,-100.15485 -5.6084,-14.08964 -9.7627,-26.05198 -9.2317,-26.58296 0.531,-0.53099 21.5425,-1.21767 46.6922,-1.52595 45.4239,-0.55679 45.753,-0.5259 49.6801,4.66257 2.1744,2.87269 9.3893,19.66771 16.0331,37.32227 18.1426,48.20988 57.5751,147.68709 65.2959,164.72348 3.7395,8.25142 7.8225,15.63511 9.0733,16.40818 2.498,1.5438 5.2947,-5.39153 40.0318,-99.26944 38.9036,-105.13821 41.9852,-112.90215 46.9088,-118.18719 4.5632,-4.89805 6.2088,-5.0894 43.7698,-5.0894 46.3391,0 47.4135,0.43833 42.8836,17.496 -2.4417,9.19445 -50.8836,136.89984 -84.313,222.27131 -5.6023,14.30687 -13.0206,33.64659 -16.4852,42.97716 -6.7928,18.29357 -20.958,53.46571 -25.9629,64.46574 -1.6982,3.73223 -5.1024,11.87527 -7.5649,18.09565 -10.1046,25.52386 -25.8714,56.80169 -35.2784,69.9845 -11.4919,16.1044 -33.2314,36.82317 -44.4999,42.41052 -17.7033,8.7779 -29.8766,13.38987 -40.8212,15.46546 -14.9466,2.83457 -46.3601,2.53029 -55.1016,-0.53373 z"
       id="path5" />
    <path
       style="fill:#ffffff;stroke-width:2.26196;fill-opacity:1;stroke:none;stroke-opacity:1"
       d="m 1846.3205,493.74809 c -3.4217,-0.51833 -7.1071,-2.65603 -8.1899,-4.75049 -1.0827,-2.09446 -2.4965,-106.6756 -3.1418,-232.40254 -0.9263,-180.500154 -0.5754,-230.015979 1.6679,-235.351061 6.2559,-14.8783791 0.7815,-14.3374734 144.072,-14.2354101 110.4822,0.078695 130.3456,0.5849497 134.1999,3.4203251 4.0075,2.948039 4.6109,6.449886 5.2856,30.674896 0.4189,15.040816 0.1495,30.521831 -0.5988,34.402257 -2.8182,14.615294 2.7428,13.734384 -94.5152,14.972163 l -88.8661,1.130978 -0.6358,58.810852 c -0.3497,32.34596 -0.096,61.02199 0.5645,63.72449 2.233,9.14128 12.6912,10.40387 71.3285,8.6113 67.9348,-2.07681 91.3356,-0.42689 98.7232,6.96069 5.0818,5.08186 5.3212,6.75039 5.3212,37.09143 0,28.75426 -0.4295,32.19964 -4.5239,36.2941 -4.3219,4.32192 -7.5399,4.52391 -72.0739,4.52391 -67.9479,0 -88.9944,1.76195 -95.2025,7.97003 -2.8448,2.84486 -3.1999,11.3003 -2.3015,54.81125 0.5842,28.29612 1.0622,66.04332 1.0622,83.88271 0,43.23624 2.4194,41.1963 -48.3172,40.73943 -20.7004,-0.18641 -40.4367,-0.763 -43.8584,-1.28131 z"
       id="path6" />
    <path
       style="fill:#ffffff;stroke-width:2.26196;fill-opacity:1;stroke:none;stroke-opacity:1"
       d="m 2453.091,532.38863 c -3.1102,-0.44927 -14.7813,-1.95698 -25.9357,-3.35048 -65.2187,-8.14763 -121.8121,-41.89106 -141.763,-84.52535 -17.4473,-37.28386 -7.8913,-84.23494 22.9573,-112.79526 18.7741,-17.38151 33.0614,-22.62338 62.18,-22.81316 19.6611,-0.12814 23.9417,0.55727 32.7278,5.24042 15.0871,8.04169 24.3639,16.06767 31.706,27.4311 6.3215,9.78371 11.9859,31.0641 7.7205,29.00479 -26.3538,-12.72343 -33.0773,-12.96333 -42.7031,-1.52372 -21.925,26.05635 6.3815,63.60773 51.9403,68.90406 14.6051,1.69789 33.2139,-4.37917 62.2427,-20.32653 26.2872,-14.44123 35.966,-18.71413 52.025,-22.96744 17.728,-4.69537 37.5919,-4.19792 53.3703,1.33652 23.253,8.1562 22.2591,8.29812 27.5193,-3.92943 2.5891,-6.01859 6.5245,-20.42116 8.7452,-32.00574 4.6996,-24.51576 4.3316,-25.18754 -13.8593,-25.29896 -13.7618,-0.0843 -17.5967,-2.23398 -16.5971,-9.30363 0.6424,-4.54294 2.1982,-5.49109 9.8112,-5.97933 19.7067,-1.2638 23.7506,-2.6799 23.7506,-8.31703 0,-9.92462 -11.5478,-45.34587 -19.5908,-60.09237 -25.167,-46.14213 -68.9543,-78.42743 -118.1593,-87.12127 -9.2045,-1.62631 -18.1109,-2.42909 -19.7921,-1.78396 -1.6812,0.64513 -3.0679,4.37217 -3.0816,8.28231 -0.045,12.88856 -2.7303,23.77932 -6.1904,25.10707 -5.9423,2.28027 -9.0592,-2.99448 -10.6727,-18.06167 l -1.5677,-14.63876 h -13.2749 c -26.9502,0 -64.5692,17.2554 -93.1028,42.70515 -20.3469,18.14781 -39.5694,47.8554 -48.3648,74.74598 -3.2597,9.96592 -5.6898,13.13723 -14.205,18.5374 -5.65,3.58308 -11.0912,6.51469 -12.0917,6.51469 -3.7735,0 -1.5814,-15.40502 5.0054,-35.17644 18.5649,-55.72521 65.3439,-106.15541 114.3708,-123.29762 22.1008,-7.72752 45.0442,-11.17483 74.0973,-11.13335 54.073,0.0772 90.2648,13.81339 127.463,48.37713 52.6117,48.88564 75.5625,121.12482 59.7153,187.95797 -6.6551,28.06684 -25.4622,65.55521 -43.6095,86.92721 -35.2577,41.52274 -83.0094,65.71449 -142.8935,72.39197 -21.3785,2.38383 -28.8852,2.56782 -39.893,0.97773 z"
       id="path7" />
    <path
       style="fill:#ffffff;stroke-width:2.26196;fill-opacity:1;stroke:none;stroke-opacity:1"
       d="m 2477.9134,347.7757 c -5.278,-3.57491 -8.5748,-8.38741 -11.0788,-16.17219 -3.3191,-10.31887 -5.6512,-12.65753 -33.8344,-33.92933 -34.2891,-25.88033 -38.5819,-30.57839 -33.0217,-36.13861 4.6996,-4.69957 7.9187,-3.0687 41.1881,20.86642 33.2077,23.89082 31.5045,23.15282 48.6672,21.08662 l 14.6333,-1.76167 38.9923,-36.06922 c 42.1754,-39.01378 44.0081,-40.46069 48.8793,-38.59144 8.052,3.08986 2.0003,11.59134 -35.9736,50.53551 -33.5876,34.44587 -39.4716,41.5246 -40.9159,49.22342 -2.3079,12.30177 -4.8883,16.49652 -13.305,21.62856 -9.3711,5.71394 -15.0273,5.55566 -24.2308,-0.67807 z"
       id="path8" />
    <path
       style="fill:#ffffff;stroke-width:2.26196;fill-opacity:1;stroke:none;stroke-opacity:1"
       d="m 2787.1182,493.84334 -13.1829,-0.97329 -5.1854,-11.75713 c -9.6331,-21.84181 -33.7859,-98.80263 -57.6402,-183.66574 -38.1987,-135.89402 -39.3094,-140.73214 -33.8275,-147.33746 2.7326,-3.29265 7.2988,-3.58375 38.1915,-2.43479 39.1832,1.4573 46.4744,3.25113 50.0676,12.31788 2.8611,7.21943 45.8501,180.23316 50.593,203.61658 1.439,7.09459 7.9174,10.61793 7.9174,4.30594 0,-1.67497 1.5796,-6.21168 3.5101,-10.08156 4.9086,-9.83947 10.6963,-31.96526 19.0503,-72.82735 15.6427,-76.51342 28.0343,-121.60853 36.1812,-131.66953 3.9274,-4.85021 5.621,-5.07432 38.7326,-5.12539 l 34.6256,-0.0534 5.0429,7.45018 c 2.7736,4.09759 6.6706,14.78533 8.6601,23.75053 9.7271,43.8336 49.8212,189.35301 51.9765,188.64578 2.3931,-0.78524 4.8138,-8.6763 25.1137,-81.86719 5.8659,-21.14928 13.4934,-48.63205 16.95,-61.0728 3.4567,-12.44076 9.0518,-32.79836 12.4335,-45.23912 9.5564,-35.15554 6.0935,-32.79836 48.1835,-32.79836 41.955,0 44.8563,1.02762 42.6074,15.09143 -0.791,4.94668 -8.1769,32.32986 -16.4132,60.85151 -8.2362,28.52166 -15.5033,53.89332 -16.1489,56.38147 -0.6457,2.48816 -4.5402,16.22954 -8.6546,30.53641 -4.1143,14.30687 -17.2749,60.11147 -29.2457,101.78801 -11.9709,41.67653 -23.1972,77.22452 -24.9474,78.99552 -2.2231,2.24963 -10.5379,3.51246 -27.5902,4.19036 -29.9634,1.19117 -56.4152,-2.16077 -61.8814,-7.84154 -4.2302,-4.39625 -9.5418,-21.00909 -38.1927,-119.45248 -10.1381,-34.83412 -19.9179,-66.69713 -21.7329,-70.80669 -3.0662,-6.94253 -7.8092,-8.1696 -7.7611,-2.00789 0.012,1.48167 -10.713,40.86445 -23.8324,87.51729 -13.1194,46.65284 -25.1357,89.4038 -26.7029,95.00214 -1.965,7.01944 -4.6266,11.03658 -8.5751,12.94237 -6.2358,3.00974 -47.2203,5.18626 -68.3224,3.62831 z"
       id="path9" />
    <path
       style="fill:#ffffff;stroke-width:2.26196;fill-opacity:1;stroke:none;stroke-opacity:1"
       d="m 2169.5926,493.86033 c -0.8294,-0.82937 -1.508,-111.12217 -1.508,-245.0951 V 5.1780908 l 15.2682,-1.4419873 c 8.3975,-0.7930928 28.1735,-1.4492233 43.9466,-1.4580675 22.18,-0.012437 29.4288,0.7343532 31.9901,3.295727 2.8539,2.853848 3.4404,36.243635 4.2415,241.463767 0.5113,130.98359 0.5389,239.35321 0.061,240.82136 -1.8063,5.55265 -15.7789,7.50942 -53.6222,7.50942 -21.3783,0 -39.5483,-0.67859 -40.3776,-1.50798 z"
       id="path10" />
  </g>
</svg>
